<svg xmlns="http://www.w3.org/2000/svg" viewBox="0 0 1085.12 1188.67"><defs><style>.cls-1{fill:#016972;}.cls-2,.cls-6{fill:#fff;}.cls-3{fill:orangered;}.cls-4{fill:#e6e7e8;}.cls-5{fill:#a7a9ac;}.cls-6{stroke:#016972;stroke-linecap:round;stroke-linejoin:round;stroke-width:85px;}</style></defs><g id="Layer_2" data-name="Layer 2"><g id="Layer_4" data-name="Layer 4"><path class="cls-1" d="M1061.32,164.76c-11.32,417-213.45,786.4-522.24,1023.91C230.28,951.16,28.15,581.76,16.83,164.76,177.27,96.7,353.8,59,539.08,59S900.88,96.7,1061.32,164.76Z"/><path class="cls-2" d="M539.07,1145.73C397.8,1032.41,279.64,888.63,196.36,728.44,108.58,559.61,59.86,377.55,51.41,187c155-62.53,318.91-94.22,487.66-94.22S871.78,124.46,1026.74,187c-8.45,190.56-57.18,372.62-145,541.45C798.51,888.63,680.35,1032.41,539.07,1145.73Z"/><path class="cls-3" d="M539.07,1118.94C405.89,1009.17,294,871.16,214.8,718.86,130.74,557.18,83,383,72.91,200.82c148.4-57.91,305.16-87.27,466.16-87.27s317.77,29.36,466.17,87.27c-10.13,182.14-57.83,356.35-141.89,518C784.17,871.16,672.25,1009.18,539.07,1118.94Z"/><circle class="cls-2" cx="539.07" cy="292.73" r="285.31"/><path class="cls-4" d="M811.33,283.8c0,129.17-80.21,239.77-193.94,285.45-14.86,6-78.81,14.69-135.76-4.85-80.85-27.74-164-83.34-167.13-104.83-2.05-14.29,1.83-36.24,1.79-51.09C315.67,208.61,427.3,76,621,82.53c53.31,1.81,113.72,29.66,157.59,53.19C802.34,179.23,811.33,230.86,811.33,283.8Z"/><path class="cls-5" d="M685,43.25s42.27,373.13-415.07,355.66c0,0,112.11,201.72,264.15,181,91-12.41,211.25-88.25,241.2-129.87S824,326.71,824.43,278.13C825.56,165.34,685,43.25,685,43.25Z"/><path class="cls-1" d="M825.51,232.34h0l-.08-.3-.12-.57c-.24-1.1-.5-2.19-.75-3.29l-1.13-5-.07-.28,0-.19h-.06a292.78,292.78,0,0,0-568.45.11h0l-.58,2.57a292.63,292.63,0,0,0,121.43,310h0l.41.27A292,292,0,0,0,695,540.38h0l.17-.11c2.2-1.4,4.39-2.82,6.55-4.27l.94-.62.62-.42h0a294.89,294.89,0,0,0,82.56-84.87,292.24,292.24,0,0,0,39.7-217.74Zm-92,11.46L612.79,272.16,544,222.2V91.82l57.79-31.57A241.85,241.85,0,0,1,751,178.45Zm-199.39-152V222.2l-66.83,48.55L342.47,242.6,326,180.75A241.83,241.83,0,0,1,476.33,60.25Zm-192.6,160.7,121.1,27.29,26.61,81.94-64,97.81-64.43-5.08a239.89,239.89,0,0,1-62.46-154.63Zm91.78,212.8,64.41-98.47h83.53l64.64,98.63-29.69,55.37a241.06,241.06,0,0,1-152.87.46Zm221.09-4.92L589.2,360.92l25.69-79.09,120.73-28.37,44.06,48.32a239.85,239.85,0,0,1-63.36,153.76ZM762.33,135.9l-7.72,28.95A251.86,251.86,0,0,0,614.13,53.53l26.13-14.28A274,274,0,0,1,762.33,135.9ZM437.89,39.25,464,53.53A251.86,251.86,0,0,0,322.29,167l-7.79-29.16A274.11,274.11,0,0,1,437.89,39.25ZM269,332.13l20-22a249.62,249.62,0,0,0,57.78,143.22L316.85,451A271.24,271.24,0,0,1,269,332.13Zm270.1,233.55a272,272,0,0,1-54.93-5.56L470,533.74a251.12,251.12,0,0,0,139.52-.41l-14.2,26.49A270.34,270.34,0,0,1,539.07,565.68ZM760.55,452.06l-30.07,2.37A249.65,249.65,0,0,0,789,312l19.9,21.83A271.45,271.45,0,0,1,760.55,452.06Z"/><polygon class="cls-5" points="742.15 178.21 727.93 239.63 659.51 253.46 719.28 231.79 742.15 178.21"/><polygon class="cls-2" points="525.13 150.97 525.13 215.83 481.43 249.1 514.41 212.01 525.13 150.97"/><path class="cls-2" d="M459.17,292.73l17.17,64.06a8.78,8.78,0,0,1-1,6.81l-34.34,57,29-63.92Z"/><polygon class="cls-2" points="582.01 60.25 539.08 82.57 495.45 60.25 539.61 71.41 582.01 60.25"/><polygon class="cls-2" points="764.41 157.59 742.15 245.4 762.34 270.75 747.72 244.16 764.41 157.59"/><polygon class="cls-2" points="730.48 464.28 651.26 467.37 624.67 519.31 654.35 472.93 730.48 464.28"/><path class="cls-2" d="M415.07,466.13c-1.86,0-86.57-6.56-86.57-6.56l9.28,15.84-.62-11.13Z"/><polygon class="cls-2" points="314.5 193.04 333.86 244.16 294.29 286.2 325.96 243.34 314.5 193.04"/><path class="cls-1" d="M191.61,767S441.4,1134.78,538.17,1166c0,0,304.56-265.93,366.92-446.42L294.41,672.38Z"/><polygon class="cls-2" points="539.08 1107.82 510.96 1122.6 516.33 1091.29 493.58 1069.12 525.02 1064.55 539.08 1036.07 553.13 1064.55 584.57 1069.12 561.82 1091.29 567.19 1122.6 539.08 1107.82"/><polygon class="cls-2" points="162.52 357.2 134.4 371.99 139.77 340.68 117.03 318.51 148.46 313.94 162.52 285.45 176.57 313.94 208.01 318.51 185.26 340.68 190.63 371.99 162.52 357.2"/><polygon class="cls-2" points="915.63 357.2 887.52 371.99 892.89 340.68 870.14 318.51 901.58 313.94 915.63 285.45 929.69 313.94 961.12 318.51 938.38 340.68 943.75 371.99 915.63 357.2"/><path class="cls-6" d="M107,708.55q-3,56.25-34.82,56.26-16.62,0-29.69-16.08v-67l18-2.68v30.23a36.23,36.23,0,0,0,.7,8.42,10.4,10.4,0,0,0,3.71,5.17q3,2.49,9.28,2.49t9.11-8.23q2.82-8.22,2.82-26.6V539.39l-13.78-1.53V505.33h46.3v31l-5.83,1.15q-5.13,1.14-5.13,11.86v119Q107.71,695.54,107,708.55Z"/><path class="cls-6" d="M211.28,759.83H127.33v-31l5.83-1.15q5.13-1.14,5.13-10.71V539l-10.07-1.15V505.33h80.94v63.53l-18,2.68V556.23c0-4.33-.29-7.4-.88-9.18s-2-2.68-4.24-2.68H159.85v65.44h40.83v39H159.85v71.56H188.3a3.82,3.82,0,0,0,4.07-2.87,35.12,35.12,0,0,0,.88-9.37V689l18,2.68Z"/><path class="cls-6" d="M253.87,550.11V677.17q0,26.79,5.92,37.69t17,10.91q11,0,17.14-11.86t6.1-34.83V539l-10.25-1.15V505.33h41.88v31l-5.83,1.15q-5.13,1.14-5.12,11.48V685.59q0,37.13-12,58.17t-33.23,21q-21.21,0-32.07-20.48t-10.87-64.87V539l-10.25-1.15V505.33H265v31l-5.84,1.15a6.1,6.1,0,0,0-4.06,3.25Q253.87,543.22,253.87,550.11Z"/><path class="cls-6" d="M434.49,670.66v69.27q-16.42,24.5-40.82,24.49t-38.09-33.1q-13.69-33.11-13.7-98.16a350,350,0,0,1,3.45-51.67q3.45-23,9-37.89a100.31,100.31,0,0,1,13-24.87q14.15-18,32.08-18t33.49,15.69v65.06l-18,2.68V554.32a36.17,36.17,0,0,0-.71-8.42q-1.95-7.26-16.08-7.27-34.11,0-34.11,91.46,0,96.45,30.75,96.45,12.19,0,18.73-9.19v-57h-.17l-13.61-1.15V626.65h44v30.62l-4.06.76a5.85,5.85,0,0,0-4,3.25C434.87,663,434.49,666.07,434.49,670.66Z"/><path class="cls-6" d="M454.11,759.83v-31l5.83-1.15q5.13-1.14,5.13-10.71V539L455,537.86V505.33h48.43q26,0,40.56,29.85t14.58,88.41q0,36.36-4.42,63.34t-12,42.28q-15.2,30.63-37.82,30.62Zm32.52-217.38V723.09h18q15.21,0,23.69-23.73t8.48-68.88q0-88-34.46-88Z"/><path class="cls-6" d="M689.16,715.05v-66.2h-50v77.3l10.25,1.15v32.53H606.63v-31l5.83-1.15q5.13-1.14,5.13-10.71V539l-10.08-1.15V505.33h42.77v31l-5.83,1.15a6.11,6.11,0,0,0-4.07,3.25q-1.23,2.49-1.23,9.38v59.32h50V539l-10.07-1.15V505.33h42.77v31L716,537.48q-5.13,1.14-5.13,12.25V726.15L721,727.3v32.53H678.2v-31l5.84-1.15a6,6,0,0,0,3.89-3.25C688.75,722.77,689.16,719.65,689.16,715.05Z"/><path class="cls-6" d="M816.76,759.83h-84v-31l5.84-1.15q5.11-1.14,5.12-10.71V539l-10.07-1.15V505.33h80.94v63.53l-18,2.68V556.23c0-4.33-.29-7.4-.88-9.18s-2-2.68-4.24-2.68H765.33v65.44h40.83v39H765.33v71.56h28.46a3.82,3.82,0,0,0,4.06-2.87,35.12,35.12,0,0,0,.88-9.37V689l18,2.68Z"/><path class="cls-6" d="M829.48,759.83v-31l5.84-1.15q5.11-1.14,5.12-10.71V539l-10.07-1.15V505.33h48.25q20.49,0,31.46,16.46t10.95,54q0,26-6.27,42.86t-14.94,24.5q6.38,5,10.08,23.34l12.72,60.09,10.08.76v32.53H889v-31l5.13-1.15q4.07-1.14,4.06-6.89a24.19,24.19,0,0,0-.7-5.35l-8.31-38.27q-2-9.57-4.33-13.59a7.51,7.51,0,0,0-6.8-4H862v66.59l11.49,1.15v32.53ZM862,623.21h15.38q21.74,0,21.74-42.1,0-24.12-5.75-31.38t-18.46-7.28H862Z"/><path class="cls-6" d="M951.08,715.05V539L941,537.86V505.33h42.42v31l-5.83,1.15q-5.13,1.14-5.13,12.25v84.19l36-94.91-9.89-1.15V505.33H1040v31l-5.83,1.15q-3.36.76-7.07,10.71L1002,614.79l31.28,111.36,9.36,1.15v32.53H997.38v-31l5.48-1.15q3.52-.75,3.53-6.12a28.61,28.61,0,0,0-.88-6.12L988,650l-15.55,40.56v35.59l10.07,1.15v32.53H940.12v-31l5.83-1.15a6,6,0,0,0,3.89-3.25C950.66,722.77,951.08,719.65,951.08,715.05Z"/><path class="cls-2" d="M420.36,935q-2.52,31.6-29.2,31.6a38.1,38.1,0,0,1-24.9-9V919.93l15.12-1.51v17a13.74,13.74,0,0,0,.59,4.73,6.5,6.5,0,0,0,3.11,2.9c1.68.94,4.28,1.4,7.78,1.4a8,8,0,0,0,7.64-4.62q2.37-4.62,2.37-15V840l-11.56-.86V820.81h38.83v17.42l-4.89.64c-2.87.43-4.3,2.66-4.3,6.67V912.4Q421,927.67,420.36,935Z"/><path class="cls-2" d="M462.15,846.4,482,933h.74L503.5,840l-9-.86V820.81h34.09v17.42l-4.89.64a3.61,3.61,0,0,0-2.81,1.61,18.11,18.11,0,0,0-1.78,4.84l-28,118.47H471.79L441.55,839.73l-8.45-.64V820.81h38.24v17.42l-4.89.64q-4.59.43-4.59,5.16A10.48,10.48,0,0,0,462.15,846.4Z"/><path class="cls-2" d="M612.88,913.69v38.92q-13.78,13.75-34.23,13.76t-31.94-18.6q-11.49-18.6-11.49-55.15a133,133,0,0,1,2.89-29q2.89-12.9,7.56-21.29a53.56,53.56,0,0,1,10.89-14,40.34,40.34,0,0,1,26.9-10.11,49.21,49.21,0,0,1,28.09,8.82V863.6l-15.12,1.5V848.33a14,14,0,0,0-.59-4.73q-1.64-4.08-13.49-4.08-28.61,0-28.6,51.38,0,54.18,25.79,54.18,10.22,0,15.71-5.16v-32h-.15l-11.41-.65V889h36.9v17.2l-3.41.43a4.89,4.89,0,0,0-3.33,1.83Q612.88,909.83,612.88,913.69Z"/><path class="cls-2" d="M698.25,938.63V901.44H656.31v43.43l8.6.64v18.28H629V946.37l4.89-.64c2.86-.43,4.3-2.44,4.3-6v-100l-8.45-.64V820.81h35.87v17.42l-4.89.64a5.19,5.19,0,0,0-3.41,1.83c-.7.93-1,2.69-1,5.27v33.32h41.94V839.73l-8.44-.64V820.81h35.86v17.42l-4.89.64c-2.87.43-4.3,2.73-4.3,6.88v99.12l8.45.64v18.28H689.06V946.37l4.9-.64a5.11,5.11,0,0,0,3.26-1.83Q698.25,942.51,698.25,938.63Z"/><line class="cls-1" x1="961.85" y1="525.79" x2="994" y2="525.79"/><path class="cls-2" d="M107,708.55q-3,56.25-34.82,56.26-16.62,0-29.69-16.08v-67l18-2.68v30.23a36.23,36.23,0,0,0,.7,8.42,10.4,10.4,0,0,0,3.71,5.17q3,2.49,9.28,2.49t9.11-8.23q2.82-8.22,2.82-26.6V539.39l-13.78-1.53V505.33h46.3v31l-5.83,1.15q-5.13,1.14-5.13,11.86v119Q107.71,695.54,107,708.55Z"/><path class="cls-2" d="M211.28,759.83H127.33v-31l5.83-1.15q5.13-1.14,5.13-10.71V539l-10.07-1.15V505.33h80.94v63.53l-18,2.68V556.23c0-4.33-.29-7.4-.88-9.18s-2-2.68-4.24-2.68H159.85v65.44h40.83v39H159.85v71.56H188.3a3.82,3.82,0,0,0,4.07-2.87,35.12,35.12,0,0,0,.88-9.37V689l18,2.68Z"/><path class="cls-2" d="M253.87,550.11V677.17q0,26.79,5.92,37.69t17,10.91q11,0,17.14-11.86t6.1-34.83V539l-10.25-1.15V505.33h41.88v31l-5.83,1.15q-5.13,1.14-5.12,11.48V685.59q0,37.13-12,58.17t-33.23,21q-21.21,0-32.07-20.48t-10.87-64.87V539l-10.25-1.15V505.33H265v31l-5.84,1.15a6.1,6.1,0,0,0-4.06,3.25Q253.87,543.22,253.87,550.11Z"/><path class="cls-2" d="M434.49,670.66v69.27q-16.42,24.5-40.82,24.49t-38.09-33.1q-13.69-33.11-13.7-98.16a350,350,0,0,1,3.45-51.67q3.45-23,9-37.89a100.31,100.31,0,0,1,13-24.87q14.15-18,32.08-18t33.49,15.69v65.06l-18,2.68V554.32a36.17,36.17,0,0,0-.71-8.42q-1.95-7.27-16.08-7.27-34.11,0-34.11,91.46,0,96.45,30.75,96.45,12.19,0,18.73-9.19v-57h-.17l-13.61-1.15V626.65h44v30.62l-4.06.76a5.85,5.85,0,0,0-4,3.25C434.87,663,434.49,666.07,434.49,670.66Z"/><path class="cls-2" d="M454.11,759.83v-31l5.83-1.15q5.13-1.14,5.13-10.71V539L455,537.86V505.33h48.43q26,0,40.56,29.85t14.58,88.41q0,36.36-4.42,63.34t-12,42.28q-15.2,30.63-37.82,30.62Zm32.52-217.38V723.09h18q15.21,0,23.69-23.73t8.48-68.88q0-88-34.46-88Z"/><path class="cls-2" d="M689.16,715.05v-66.2h-50v77.3l10.25,1.15v32.53H606.63v-31l5.83-1.15q5.13-1.14,5.13-10.71V539l-10.08-1.15V505.33h42.77v31l-5.83,1.15a6.11,6.11,0,0,0-4.07,3.25q-1.23,2.49-1.23,9.38v59.32h50V539l-10.07-1.15V505.33h42.77v31L716,537.48q-5.13,1.14-5.13,12.25V726.15L721,727.3v32.53H678.2v-31l5.84-1.15a6,6,0,0,0,3.89-3.25C688.75,722.77,689.16,719.65,689.16,715.05Z"/><path class="cls-2" d="M816.76,759.83h-84v-31l5.84-1.15q5.11-1.14,5.12-10.71V539l-10.07-1.15V505.33h80.94v63.53l-18,2.68V556.23c0-4.33-.29-7.4-.88-9.18s-2-2.68-4.24-2.68H765.33v65.44h40.83v39H765.33v71.56h28.46a3.82,3.82,0,0,0,4.06-2.87,35.12,35.12,0,0,0,.88-9.37V689l18,2.68Z"/><path class="cls-2" d="M829.48,759.83v-31l5.84-1.15q5.11-1.14,5.12-10.71V539l-10.07-1.15V505.33h48.25q20.49,0,31.46,16.46t10.95,54q0,26-6.27,42.86t-14.94,24.5q6.38,5,10.08,23.34l12.72,60.09,10.08.76v32.53H889v-31l5.13-1.15q4.07-1.14,4.06-6.89a24.19,24.19,0,0,0-.7-5.35l-8.31-38.27q-2-9.57-4.33-13.59a7.51,7.51,0,0,0-6.8-4H862v66.59l11.49,1.15v32.53ZM862,623.21h15.38q21.74,0,21.74-42.1,0-24.12-5.75-31.38t-18.46-7.28H862Z"/><path class="cls-2" d="M951.08,715.05V539L941,537.86V505.33h42.42v31l-5.83,1.15q-5.13,1.14-5.13,12.25v84.19l36-94.91-9.89-1.15V505.33H1040v31l-5.83,1.15q-3.36.76-7.07,10.71L1002,614.79l31.28,111.36,9.36,1.15v32.53H997.38v-31l5.48-1.15q3.52-.75,3.53-6.12a28.61,28.61,0,0,0-.88-6.12L988,650l-15.55,40.56v35.59l10.07,1.15v32.53H940.12v-31l5.83-1.15a6,6,0,0,0,3.89-3.25C950.66,722.77,951.08,719.65,951.08,715.05Z"/></g></g></svg>
